{
	"asset":{
		"generator":"Khronos glTF Blender I/O v3.6.27",
		"version":"2.0"
	},
	"scene":0,
	"scenes":[
		{
			"name":"Scene",
			"nodes":[
				0
			]
		}
	],
	"nodes":[
		{
			"mesh":0,
			"name":"Bed",
			"translation":[
				0,
				0.800000011920929,
				0.6135618686676025
			]
		}
	],
	"materials":[
		{
			"doubleSided":true,
			"name":"bedMat",
			"pbrMetallicRoughness":{
				"baseColorTexture":{
					"index":0
				},
				"metallicFactor":0,
				"roughnessFactor":0.5
			}
		}
	],
	"meshes":[
		{
			"name":"\u7acb\u65b9\u4f53",
			"primitives":[
				{
					"attributes":{
						"POSITION":0,
						"NORMAL":1,
						"TEXCOORD_0":2
					},
					"indices":3,
					"material":0
				}
			]
		}
	],
	"textures":[
		{
			"sampler":0,
			"source":0
		}
	],
	"images":[
		{
			"bufferView":4,
			"mimeType":"image/png",
			"name":"bedTextures"
		}
	],
	"accessors":[
		{
			"bufferView":0,
			"componentType":5126,
			"count":478,
			"max":[
				0.9843122959136963,
				1.2709310054779053,
				1.533779263496399
			],
			"min":[
				-1.0156877040863037,
				-0.7907403707504272,
				-2.8458967208862305
			],
			"type":"VEC3"
		},
		{
			"bufferView":1,
			"componentType":5126,
			"count":478,
			"type":"VEC3"
		},
		{
			"bufferView":2,
			"componentType":5126,
			"count":478,
			"type":"VEC2"
		},
		{
			"bufferView":3,
			"componentType":5123,
			"count":888,
			"type":"SCALAR"
		}
	],
	"bufferViews":[
		{
			"buffer":0,
			"byteLength":5736,
			"byteOffset":0,
			"target":34962
		},
		{
			"buffer":0,
			"byteLength":5736,
			"byteOffset":5736,
			"target":34962
		},
		{
			"buffer":0,
			"byteLength":3824,
			"byteOffset":11472,
			"target":34962
		},
		{
			"buffer":0,
			"byteLength":1776,
			"byteOffset":15296,
			"target":34963
		},
		{
			"buffer":0,
			"byteLength":25362,
			"byteOffset":17072
		}
	],
	"samplers":[
		{
			"magFilter":9728,
			"minFilter":9984
		}
	],
	"buffers":[
		{
			"byteLength":42436,
			"uri":"data:application/octet-stream;base64,"
		}
	]
}
